# xmcd
#
# Track frame offsets:
#	150
#	20406
#	36472
#	51252
#	69236
#	87913
#	108303
#	131196
#	150400
#	169178
#	188258
#	217914
#
# Disc length: 3172 seconds
#
# Revision: 0
# Processed by: cddbd v1.5.1PL0 Copyright (c) Steve Scherf et al.
# Submitted via: dBpowerAMP V4.0
#
DISCID=980c620c
DTITLE=Elusion - Think About It!!!!
DYEAR=1998
DGENRE=R&B/Soul
TTITLE0=Reality
TTITLE1=Good And Plenty
TTITLE2=Give It Up
TTITLE3=How Can U
TTITLE4=I Need A Real Man
TTITLE5=Bring That Lovin` On
TTITLE6=Gotta Have It
TTITLE7=Medicine
TTITLE8=Pretty Baby
TTITLE9=Chillin`
TTITLE10=Better Think About It
TTITLE11=DATA
EXTD=
EXTT0=
EXTT1=
EXTT2=
EXTT3=
EXTT4=
EXTT5=
EXTT6=
EXTT7=
EXTT8=
EXTT9=
EXTT10=
EXTT11=
PLAYORDER=
